<mxfile host="app.diagrams.net" modified="2021-04-23T14:08:52.265Z" agent="5.0 (Macintosh; Intel Mac OS X 10_15_7) AppleWebKit/537.36 (KHTML, like Gecko) Chrome/90.0.4430.85 Safari/537.36" etag="e8Y-bummDl4k4wia_R4R" version="14.6.6" type="github">
  <diagram id="ZiyRxs39-0jvfMc8zpvq" name="第 1 页">
    <mxGraphModel dx="890" dy="589" grid="1" gridSize="10" guides="1" tooltips="1" connect="1" arrows="1" fold="1" page="1" pageScale="1" pageWidth="827" pageHeight="1169" math="0" shadow="0">
      <root>
        <mxCell id="0" />
        <mxCell id="1" parent="0" />
        <mxCell id="TqwXD6B37TRfVpwqjgM9-3" value="" style="edgeStyle=orthogonalEdgeStyle;rounded=0;orthogonalLoop=1;jettySize=auto;html=1;" edge="1" parent="1" source="TqwXD6B37TRfVpwqjgM9-1" target="TqwXD6B37TRfVpwqjgM9-2">
          <mxGeometry relative="1" as="geometry" />
        </mxCell>
        <mxCell id="TqwXD6B37TRfVpwqjgM9-1" value="" style="rounded=1;whiteSpace=wrap;html=1;" vertex="1" parent="1">
          <mxGeometry x="170" y="190" width="120" height="60" as="geometry" />
        </mxCell>
        <mxCell id="TqwXD6B37TRfVpwqjgM9-5" value="" style="edgeStyle=orthogonalEdgeStyle;rounded=0;orthogonalLoop=1;jettySize=auto;html=1;" edge="1" parent="1" source="TqwXD6B37TRfVpwqjgM9-2" target="TqwXD6B37TRfVpwqjgM9-4">
          <mxGeometry relative="1" as="geometry" />
        </mxCell>
        <mxCell id="TqwXD6B37TRfVpwqjgM9-2" value="" style="whiteSpace=wrap;html=1;rounded=1;" vertex="1" parent="1">
          <mxGeometry x="170" y="330" width="120" height="60" as="geometry" />
        </mxCell>
        <mxCell id="TqwXD6B37TRfVpwqjgM9-7" value="" style="edgeStyle=orthogonalEdgeStyle;rounded=0;orthogonalLoop=1;jettySize=auto;html=1;" edge="1" parent="1" source="TqwXD6B37TRfVpwqjgM9-4" target="TqwXD6B37TRfVpwqjgM9-6">
          <mxGeometry relative="1" as="geometry" />
        </mxCell>
        <mxCell id="TqwXD6B37TRfVpwqjgM9-4" value="" style="rounded=1;whiteSpace=wrap;html=1;" vertex="1" parent="1">
          <mxGeometry x="370" y="330" width="120" height="60" as="geometry" />
        </mxCell>
        <mxCell id="TqwXD6B37TRfVpwqjgM9-9" value="" style="edgeStyle=orthogonalEdgeStyle;rounded=0;orthogonalLoop=1;jettySize=auto;html=1;" edge="1" parent="1" source="TqwXD6B37TRfVpwqjgM9-6" target="TqwXD6B37TRfVpwqjgM9-8">
          <mxGeometry relative="1" as="geometry" />
        </mxCell>
        <mxCell id="TqwXD6B37TRfVpwqjgM9-6" value="" style="rhombus;whiteSpace=wrap;html=1;rounded=1;rotation=0;direction=south;" vertex="1" parent="1">
          <mxGeometry x="390" y="460" width="80" height="80" as="geometry" />
        </mxCell>
        <mxCell id="TqwXD6B37TRfVpwqjgM9-8" value="" style="whiteSpace=wrap;html=1;rounded=1;" vertex="1" parent="1">
          <mxGeometry x="370" y="630" width="120" height="60" as="geometry" />
        </mxCell>
      </root>
    </mxGraphModel>
  </diagram>
</mxfile>
